<svg id="Calque_1" data-name="Calque 1" xmlns="http://www.w3.org/2000/svg" viewBox="0 0 1172.97 315.37"><defs><style>.cls-1{fill:#ba3938;}.cls-2{fill:#46beeb;}.cls-3{fill:#f6b626;}.cls-4{fill:#e7481d;}.cls-5{fill:#4e6875;}.cls-6{fill:#fff;}</style></defs><path class="cls-1" d="M295,756.69l103-178.23c4.27-7.38,8.72-14.65,12.74-22.17,2.28-4.28,5.3-6,10.15-5.94,29.44.15,58.88,0,88.32.11,3.65,0,8.29-.77,7.52,5.52-2.41,1.23-3.78,3.43-5,5.66q-16.85,29.5-33.61,59.06c-6.71,11.89-14.74,23.06-19.78,35.87-4.71,3.41-6.56,8.82-9.3,13.56Q395.91,762,343.1,854.07c-4.5,7.89-9.24,11.46-18.75,11.22-27.29-.71-54.6-.15-81.91-.38-3,0-8.34,2.76-8.64-4,1.41-1.57,3.14-2.94,4.16-4.73Q266.56,806.46,295,756.69Z" transform="translate(-120.55 -550.08)"/><path class="cls-2" d="M131.23,752.37c-10.48-1-10.59-1-10.62-10.57q-.12-34.65,0-69.31c0-9.33.17-9.54,8.62-10.18,55.25-4.19,96.6-47.85,102.46-96.86.36-3,1.33-5.92,1.3-8.87-.06-5.13,2.44-6.52,7.12-6.5,24.37.1,48.75-.07,73.13.06,9.54.05,10.12.74,9.44,10.46C320,599.87,308,635.93,285,668.1a202.19,202.19,0,0,1-31,34.13c-2.49,2.19-5.74,4-5.24,8.2-4.66.22-7.45,3.91-10.85,6.23C205.7,738.57,170.67,752,131.23,752.37Z" transform="translate(-120.55 -550.08)"/><path class="cls-3" d="M613,662.28c19.71.27,16.39-.63,16.57,16.5.19,18.4,0,36.82,0,55.22,0,17.45,0,17.5-16.7,19.94-24.1,3.51-44.7,14-61.91,31.15-19.22,19.1-30.31,42.13-32.78,69.23-1,10.44-1,10.55-11.12,10.59q-34,.12-68,0c-10.83,0-11-.13-10.53-11.57,1.71-39.13,14.72-74.36,37.21-106.21a203.33,203.33,0,0,1,28.1-31.62c3-2.81,7.3-4.8,7.86-9.69,4.32-.87,7.58-3.65,11.06-6.09,22.91-16.07,48.06-26.83,75.37-33.19C596.43,664.62,605.1,665.76,613,662.28Z" transform="translate(-120.55 -550.08)"/><path class="cls-4" d="M613,662.28c-7.91,3.48-16.58,2.34-24.86,4.27-27.31,6.36-52.46,17.12-75.37,33.19-3.48,2.44-6.74,5.22-11.06,6.09-17.85-13.43-31.89-30.22-43.38-49.26,5-12.81,13.07-24,19.78-35.87q16.69-29.6,33.61-59.06c1.27-2.23,2.64-4.43,5-5.66,2.64,13.73,4.6,27.63,10.65,40.45q22.56,47.79,73.28,62.51C604.79,660.12,608.91,661.17,613,662.28Z" transform="translate(-120.55 -550.08)"/><path class="cls-5" d="M131.23,752.37c39.44-.34,74.47-13.8,106.74-35.71,3.4-2.32,6.19-6,10.85-6.23,15.2,8.2,24.19,22.49,34.88,35.18,3.36,4,4.41,10.64,11.32,11.08q-28.5,49.75-57.06,99.47c-1,1.79-2.75,3.16-4.16,4.73-3-12.8-3.77-26-9.29-38.35C207.16,783.8,178.39,760.16,136,754A25.42,25.42,0,0,1,131.23,752.37Z" transform="translate(-120.55 -550.08)"/><path class="cls-6" d="M857,570.6a2.65,2.65,0,0,1-3.52.75C854.39,569.92,855.59,569.79,857,570.6Z" transform="translate(-120.55 -550.08)"/><path class="cls-6" d="M864.63,570.14l-.39.77s-.41-.74-.4-.74Z" transform="translate(-120.55 -550.08)"/><path class="cls-6" d="M832.29,577.57a3.62,3.62,0,0,1-3.56,1.83A3.13,3.13,0,0,1,832.29,577.57Z" transform="translate(-120.55 -550.08)"/><path class="cls-6" d="M739.59,755.36H693.45l70.3-203.64h55.48l70.2,203.64H843.29l-51-157.1h-1.6Zm-2.89-80h109v33.6h-109Z" transform="translate(-120.55 -550.08)"/><path class="cls-6" d="M913.89,755.36V551.72h43.05V719.86h87.3v35.5Z" transform="translate(-120.55 -550.08)"/><path class="cls-6" d="M1072.78,551.72h53.1L1182,688.54h2.39l56.08-136.82h53.1V755.36h-41.77V622.82h-1.69l-52.69,131.55h-28.44l-52.7-132h-1.69v133h-41.76Z" transform="translate(-120.55 -550.08)"/><path class="cls-6" d="M715.33,844.75a9,9,0,0,0-1.1-2.32,7.43,7.43,0,0,0-1.64-1.76,6.93,6.93,0,0,0-2.16-1.12,9,9,0,0,0-2.67-.38,8,8,0,0,0-4.43,1.27,8.49,8.49,0,0,0-3.12,3.7,16.14,16.14,0,0,0,0,11.94,8.61,8.61,0,0,0,3.15,3.7,8.41,8.41,0,0,0,4.56,1.27,8.56,8.56,0,0,0,4.14-1,6.67,6.67,0,0,0,2.74-2.73,8.51,8.51,0,0,0,1-4.17l1.13.21H708.6v-3.62H720v3.31a12.43,12.43,0,0,1-1.56,6.35,10.73,10.73,0,0,1-4.29,4.16,13.12,13.12,0,0,1-6.26,1.46,12.93,12.93,0,0,1-6.92-1.82,12.26,12.26,0,0,1-4.64-5.16,17.66,17.66,0,0,1-1.66-8,19,19,0,0,1,1-6.25,13.81,13.81,0,0,1,2.72-4.71,11.8,11.8,0,0,1,4.14-3,12.87,12.87,0,0,1,5.2-1,13.62,13.62,0,0,1,4.4.69,12,12,0,0,1,3.64,2,11.48,11.48,0,0,1,2.65,3,11.28,11.28,0,0,1,1.42,3.88Z" transform="translate(-120.55 -550.08)"/><path class="cls-6" d="M740.16,864.65V835.56h10.37a12,12,0,0,1,5.62,1.17A7.73,7.73,0,0,1,759.5,840a9.86,9.86,0,0,1,1.1,4.73,9.63,9.63,0,0,1-1.11,4.7,7.51,7.51,0,0,1-3.35,3.14,12.5,12.5,0,0,1-5.62,1.13h-7.86v-3.78h7.46a8.53,8.53,0,0,0,3.47-.61,4,4,0,0,0,2-1.78,5.79,5.79,0,0,0,.63-2.8,6.05,6.05,0,0,0-.64-2.85,4.24,4.24,0,0,0-2-1.86,8.2,8.2,0,0,0-3.52-.64h-5.51v25.32Zm14.36-13.12,7.19,13.12h-5l-7-13.12Z" transform="translate(-120.55 -550.08)"/><path class="cls-6" d="M805.79,850.11a17.39,17.39,0,0,1-1.71,8,12.39,12.39,0,0,1-4.66,5.14,13.5,13.5,0,0,1-13.47,0,12.39,12.39,0,0,1-4.66-5.14,19.59,19.59,0,0,1,0-16A12.45,12.45,0,0,1,786,837a13.57,13.57,0,0,1,13.47,0,12.45,12.45,0,0,1,4.66,5.14A17.41,17.41,0,0,1,805.79,850.11Zm-4.35,0a14.1,14.1,0,0,0-1.14-6,8.54,8.54,0,0,0-3.13-3.69,8.61,8.61,0,0,0-9,0,8.66,8.66,0,0,0-3.12,3.69,16.31,16.31,0,0,0,0,12,8.66,8.66,0,0,0,3.12,3.69,8.61,8.61,0,0,0,9,0,8.54,8.54,0,0,0,3.13-3.69A14.1,14.1,0,0,0,801.44,850.11Z" transform="translate(-120.55 -550.08)"/><path class="cls-6" d="M844.51,835.56h4.4V854.7a10.14,10.14,0,0,1-1.43,5.4,9.9,9.9,0,0,1-4,3.69,14.39,14.39,0,0,1-12.17,0,9.87,9.87,0,0,1-4-3.69,10.14,10.14,0,0,1-1.44-5.4V835.56h4.39v18.78a6.88,6.88,0,0,0,.88,3.51,6.16,6.16,0,0,0,2.47,2.41,7.88,7.88,0,0,0,3.81.87,8,8,0,0,0,3.83-.87,6.1,6.1,0,0,0,2.47-2.41,7.08,7.08,0,0,0,.86-3.51Z" transform="translate(-120.55 -550.08)"/><path class="cls-6" d="M869.87,864.65V835.56h10.36a11.55,11.55,0,0,1,5.63,1.24,8,8,0,0,1,3.34,3.37,11,11,0,0,1,0,9.63,8,8,0,0,1-3.35,3.38,11.45,11.45,0,0,1-5.62,1.25h-7.13v-3.72h6.73a7.07,7.07,0,0,0,3.48-.75,4.59,4.59,0,0,0,2-2,7.15,7.15,0,0,0,0-5.87,4.5,4.5,0,0,0-2-2,7.5,7.5,0,0,0-3.53-.72h-5.52v25.32Z" transform="translate(-120.55 -550.08)"/></svg>