<svg width="22" height="22" viewBox="0 0 22 22" fill="none" xmlns="http://www.w3.org/2000/svg">
<path d="M4.8125 19.25C4.63016 19.25 4.4553 19.1776 4.32636 19.0486C4.19743 18.9197 4.125 18.7448 4.125 18.5625V3.4375C4.12502 3.31804 4.15617 3.20064 4.21538 3.09688C4.2746 2.99311 4.35982 2.90657 4.46267 2.84578C4.56551 2.78499 4.68242 2.75205 4.80188 2.7502C4.92133 2.74836 5.0392 2.77767 5.14387 2.83525L18.8939 10.3978C19.0017 10.4571 19.0916 10.5443 19.1542 10.6502C19.2168 10.7562 19.2498 10.877 19.2498 11C19.2498 11.1231 19.2168 11.2438 19.1542 11.3498C19.0916 11.4557 19.0017 11.5429 18.8939 11.6023L5.14387 19.1648C5.04237 19.2206 4.92838 19.25 4.8125 19.25Z" fill="black"/>
</svg>
